<?xml version="1.0" encoding="UTF-8" standalone="no"?>
<!-- Created with Inkscape (http://www.inkscape.org/) -->

<svg
   width="210mm"
   height="297mm"
   viewBox="0 0 210 297"
   version="1.1"
   id="svg5"
   xml:space="preserve"
   inkscape:export-filename="tripMachaIcon.svg"
   inkscape:export-xdpi="3.870476"
   inkscape:export-ydpi="3.870476"
   xmlns:inkscape="http://www.inkscape.org/namespaces/inkscape"
   xmlns:sodipodi="http://sodipodi.sourceforge.net/DTD/sodipodi-0.dtd"
   xmlns="http://www.w3.org/2000/svg"
   xmlns:svg="http://www.w3.org/2000/svg"><sodipodi:namedview
     id="namedview7"
     pagecolor="#ffffff"
     bordercolor="#000000"
     borderopacity="0.25"
     inkscape:showpageshadow="2"
     inkscape:pageopacity="0.0"
     inkscape:pagecheckerboard="0"
     inkscape:deskcolor="#d1d1d1"
     inkscape:document-units="mm"
     showgrid="false" /><defs
     id="defs2" /><g
     inkscape:label="Layer 1"
     inkscape:groupmode="layer"
     id="layer1"><path
       style="fill:#0000ff;stroke-width:4.89747"
       d="M 12.497269,225.023 C 10.83381,223.08447 9.4727976,197.23139 9.4727976,167.57171 V 113.64502 L 31.738355,102.86169 54.003912,92.078361 56.628268,103.47854 c 1.443395,6.27009 2.652232,32.302 2.686303,57.84866 l 0.06195,46.44848 -20.791275,10.38598 C 14.75253,230.06694 16.443762,229.62214 12.497271,225.023 Z m 88.843741,-7.7329 -28.354386,-10.26845 v -32.24541 -32.2454 l 9.402676,13.93029 c 12.097598,17.92289 26.1675,17.70346 39.0333,-0.60874 l 10.21484,-14.53904 0.16308,43.61714 c 0.0897,23.98943 -0.34725,43.3946 -0.97104,43.12262 -0.62378,-0.27202 -13.89365,-5.11536 -29.48856,-10.76301 z m 44.23285,-52.11462 v -58.08525 l 16.43248,-8.001349 c 32.71953,-15.931848 33.47124,-14.860614 33.47124,47.699269 v 55.70061 l -20.79128,10.38597 c -11.43521,5.71231 -22.66353,10.38598 -24.95186,10.38598 -2.28832,0 -4.16058,-26.13837 -4.16058,-58.08523 z M 85.072253,133.08842 C 62.548136,93.551 60.035992,75.782425 74.248003,56.527697 94.12698,29.595234 131.2101,39.369025 138.55589,73.476969 c 3.176,14.746837 -8.50817,47.078771 -26.319,72.828761 l -10.7669,15.56623 z M 113.81695,88.444075 c 4.50578,-6.326942 4.50578,-9.533826 0,-15.860776 -3.10624,-4.361715 -8.21003,-7.930389 -11.34177,-7.930389 -3.131737,0 -8.235514,3.568674 -11.341752,7.930389 -4.50578,6.32695 -4.50578,9.533834 0,15.860776 3.106238,4.361724 8.210015,7.930397 11.341752,7.930397 3.13174,0 8.23553,-3.568673 11.34177,-7.930397 z"
       id="path1941" /></g></svg>
